<svg width="180" height="21" viewBox="0 0 180 21" fill="none" xmlns="http://www.w3.org/2000/svg">
<path d="M10.1296 19.0269V4.69222H5.81154C5.68937 4.70148 5.56699 4.67713 5.45767 4.6218C5.34836 4.56646 5.25627 4.48226 5.1914 4.37832C5.0638 4.16821 5 3.82964 5 3.36262V2.55491C5 2.08704 5.0638 1.74677 5.1914 1.5341C5.25692 1.4311 5.34928 1.34792 5.45855 1.29351C5.56782 1.2391 5.68987 1.21552 5.81154 1.22531H18.6877C18.8099 1.21604 18.9323 1.2404 19.0416 1.29573C19.1509 1.35106 19.243 1.43526 19.3079 1.5392C19.4355 1.74847 19.4993 2.08874 19.4993 2.56001V3.36772C19.4993 3.83559 19.4355 4.17586 19.3079 4.38853C19.243 4.49247 19.1509 4.57667 19.0416 4.632C18.9323 4.68734 18.8099 4.71169 18.6877 4.70243H14.3493V19.0269C14.3493 19.5858 13.8032 19.8648 12.7109 19.864H11.7628C10.6731 19.864 10.1287 19.5849 10.1296 19.0269Z" fill="white"/>
<path d="M17.9834 19.2809C17.9948 19.117 18.0309 18.9556 18.0906 18.8024L24.0878 1.71797C24.2307 1.34027 24.7462 1.151 25.6343 1.15015H27.0379C27.926 1.15015 28.4415 1.33942 28.5845 1.71797L34.5817 18.8024C34.6261 18.9583 34.6518 19.119 34.6582 19.2809C34.6572 19.3799 34.6248 19.476 34.5656 19.5554C34.5065 19.6347 34.4236 19.6932 34.329 19.7224C34.1096 19.8169 33.765 19.8641 33.2955 19.8641H32.1152C31.7661 19.8748 31.4175 19.8318 31.0816 19.7365C30.9722 19.7118 30.8707 19.6599 30.7866 19.5857C30.7026 19.5114 30.6386 19.4171 30.6005 19.3116L29.4994 16.068H23.0823L21.9799 19.3116C21.8676 19.6799 21.449 19.8641 20.7243 19.8641H19.6524C18.5397 19.8641 17.9834 19.6697 17.9834 19.2809ZM28.3344 12.5551L26.7878 7.83388C26.6877 7.56649 26.6083 7.29176 26.5505 7.01213C26.4842 6.70333 26.4255 6.40943 26.3744 6.13041H26.2672L26.206 6.45962C26.1352 6.92839 26.0172 7.38882 25.8538 7.83388L24.246 12.5551H28.3344Z" fill="white"/>
<path d="M36.1665 19.6699C36.045 19.6134 35.9423 19.5233 35.8704 19.4102C35.7985 19.2971 35.7604 19.1659 35.7607 19.0319V2.02143C35.7607 1.43361 36.3069 1.13928 37.3991 1.13843H38.3472C38.9086 1.13843 39.3195 1.21329 39.5798 1.36301C39.7005 1.42454 39.8013 1.51909 39.8704 1.63564C39.9396 1.75219 39.9742 1.88597 39.9703 2.02143V19.0306C39.9703 19.6082 39.4292 19.8974 38.3472 19.8983H37.3991C36.8479 19.8957 36.437 19.8196 36.1665 19.6699Z" fill="white"/>
<path d="M43.247 19.5653C43.0735 19.3956 42.9918 19.1264 42.9918 18.7576V2.02149C42.9876 1.8862 43.0229 1.7526 43.0933 1.63703C43.1638 1.52146 43.2664 1.42892 43.3886 1.37073C43.654 1.22612 44.0675 1.15381 44.6289 1.15381H45.5476C46.1091 1.15381 46.5225 1.22612 46.7879 1.37073C46.9096 1.42943 47.0115 1.52215 47.0815 1.63766C47.1515 1.75317 47.1865 1.8865 47.1822 2.02149V16.337H53.2458C53.368 16.3278 53.4903 16.3521 53.5997 16.4075C53.709 16.4628 53.8011 16.547 53.8659 16.6509C53.9935 16.8589 54.0573 17.1932 54.0573 17.6513V18.4884C54.0573 18.9579 53.9935 19.2961 53.8659 19.5092C53.8011 19.6131 53.709 19.6973 53.5997 19.7527C53.4903 19.808 53.368 19.8323 53.2458 19.8231H44.0739C43.6962 19.8205 43.4205 19.7346 43.247 19.5653Z" fill="white"/>
<path d="M58.8578 18.9376C57.553 18.1968 56.5139 17.0649 55.8873 15.7016C55.2067 14.2819 54.8665 12.5503 54.8665 10.507C54.8665 8.46368 55.2067 6.73724 55.8873 5.32768C56.5127 3.96555 57.5523 2.83573 58.8578 2.09938C60.1593 1.36695 61.7386 1.00073 63.5956 1.00073C65.4526 1.00073 67.0374 1.36695 68.35 2.09938C69.6545 2.8347 70.6919 3.96506 71.3129 5.32768C71.9867 6.7483 72.3235 8.47474 72.3235 10.507C72.3235 12.5393 71.9867 14.2708 71.3129 15.7016C70.6908 17.0654 69.6538 18.1979 68.35 18.9376C67.0485 19.6751 65.4637 20.0439 63.5956 20.0439C61.7276 20.0439 60.1483 19.6751 58.8578 18.9376ZM66.903 14.9985C67.6482 13.9675 68.0208 12.4703 68.0208 10.507C68.0208 8.54364 67.6482 7.05497 66.903 6.04097C66.1579 5.02016 65.0554 4.51188 63.5956 4.51614C62.1359 4.52039 61.0364 5.03079 60.2971 6.04735C59.5469 7.06815 59.1717 8.55683 59.1717 10.5134C59.1717 12.4699 59.5494 13.9671 60.3048 15.0049C61.0602 16.0359 62.1571 16.5519 63.5956 16.5527C65.0554 16.5485 66.1579 16.0304 66.903 14.9985Z" fill="white"/>
<path d="M74.8042 19.027V2.2768C74.8042 1.9076 74.8893 1.64092 75.0594 1.47674C75.2295 1.31256 75.5052 1.23047 75.8863 1.23047H81.1996C85.7081 1.23047 87.9624 2.88928 87.9624 6.2069C87.9844 7.14824 87.6786 8.06797 87.0973 8.80868C86.4905 9.5569 85.6872 10.1212 84.7775 10.4381V10.5415C85.1178 10.6819 85.4725 10.9796 85.8417 11.4347C86.2188 11.9034 86.5202 12.4282 86.7349 12.9902L89.1389 18.8343C89.2054 18.9975 89.2484 19.1694 89.2665 19.3447C89.2665 19.6935 88.7254 19.8678 87.6434 19.8678H86.5371C85.6286 19.8678 85.1029 19.6837 84.96 19.3153L82.8022 14.1284C82.6408 13.7986 82.4431 13.4878 82.2127 13.202C81.9996 12.9671 81.7272 12.7939 81.4241 12.7005C80.9817 12.5719 80.5218 12.5138 80.0614 12.5282H79.0048V19.0359C79.0048 19.5948 78.4587 19.8738 77.3664 19.8729H76.4477C75.352 19.867 74.8042 19.585 74.8042 19.027ZM81.567 8.99753C81.9358 8.99701 82.2968 8.89073 82.607 8.69129C82.9341 8.4864 83.2031 8.20077 83.3879 7.86188C83.5822 7.51054 83.6824 7.11495 83.6788 6.71348C83.6788 6.09589 83.4721 5.60505 83.0587 5.24096C82.6465 4.8773 82.0864 4.69483 81.3833 4.69483H78.9997V8.99753H81.567Z" fill="white"/>
<path d="M99.5165 19.7221C99.2613 19.6277 99.1133 19.4899 99.0725 19.3112L94.7698 2.2561C94.7268 2.12612 94.7065 1.98973 94.7098 1.85288C94.7098 1.63341 94.8489 1.46114 95.1296 1.34248C95.4103 1.22381 95.8365 1.1549 96.4056 1.1549H97.11C98.1716 1.1549 98.779 1.43392 98.9321 1.99196L100.974 10.5412C101.003 10.6884 101.124 11.2511 101.339 12.2294L101.813 14.3667C101.936 13.6394 102.171 12.6279 102.518 11.3323L102.732 10.5399L104.983 1.71762C105.02 1.51856 105.167 1.37438 105.422 1.28506C105.762 1.18193 106.116 1.13621 106.471 1.1498H107.512C107.866 1.13635 108.22 1.18207 108.56 1.28506C108.81 1.37438 108.955 1.51856 108.996 1.71762L111.155 10.5361C111.42 11.6335 111.732 12.969 112.089 14.5428L112.518 12.6594L113.008 10.5361L115.12 1.98686C115.273 1.42882 115.88 1.1498 116.942 1.1498H117.248C117.809 1.1498 118.23 1.21232 118.511 1.33737C118.792 1.46242 118.932 1.63255 118.932 1.84777C118.932 1.91527 118.927 1.98268 118.917 2.04938C118.907 2.11446 118.897 2.17699 118.886 2.25099L114.445 19.3112C114.394 19.4899 114.23 19.6277 113.955 19.7221C113.628 19.8241 113.286 19.8719 112.944 19.8637H110.953C110.611 19.8719 110.27 19.8241 109.943 19.7221C109.667 19.6277 109.509 19.4899 109.468 19.3112L107.234 10.124L106.805 8.31458L106.33 10.124L104.018 19.3112C103.967 19.4899 103.804 19.6277 103.528 19.7221C103.201 19.8241 102.86 19.8719 102.518 19.8637H100.558C100.205 19.8764 99.853 19.8284 99.5165 19.7221Z" fill="white"/>
<path d="M120.317 19.6699C120.195 19.6134 120.092 19.5233 120.021 19.4102C119.949 19.2971 119.911 19.1659 119.911 19.0319V2.02143C119.911 1.43361 120.457 1.13928 121.549 1.13843H122.499C123.06 1.13843 123.471 1.21329 123.731 1.36301C123.852 1.42454 123.953 1.51909 124.022 1.63564C124.091 1.75219 124.126 1.88597 124.122 2.02143V19.0306C124.122 19.6082 123.581 19.8974 122.499 19.8983H121.549C120.998 19.8957 120.587 19.8196 120.317 19.6699Z" fill="white"/>
<path d="M127.138 19.0267V2.02133C127.134 1.88593 127.17 1.7523 127.24 1.63675C127.311 1.52119 127.414 1.42871 127.536 1.37057C127.802 1.22596 128.215 1.15365 128.776 1.15365H129.94C130.308 1.14338 130.676 1.19382 131.027 1.30294C131.322 1.4103 131.571 1.61631 131.732 1.88608L138.161 11.5569L138.896 12.6326V2.02133C138.892 1.88593 138.928 1.7523 138.999 1.63675C139.069 1.52119 139.172 1.42871 139.295 1.37057C139.56 1.22596 139.973 1.15365 140.535 1.15365H141.316C141.877 1.15365 142.288 1.22596 142.548 1.37057C142.669 1.43044 142.769 1.52361 142.838 1.63899C142.907 1.75437 142.941 1.88709 142.936 2.02133V19.0305C142.936 19.5894 142.395 19.8684 141.313 19.8676H140.272C139.904 19.8789 139.537 19.8311 139.185 19.7259C138.898 19.6224 138.655 19.4244 138.496 19.1645L131.762 9.1019L131.18 8.26484V19.0267C131.18 19.5856 130.639 19.8646 129.557 19.8638H128.773C127.683 19.8638 127.138 19.5847 127.138 19.0267Z" fill="white"/>
<path d="M147.601 17.7164C146.147 16.1623 145.419 13.7459 145.419 10.4674C145.419 4.1563 148.451 1.00073 154.513 1.00073C155.389 1.00554 156.262 1.08537 157.124 1.23935C157.913 1.36178 158.682 1.58566 159.413 1.90542C160.026 2.1887 160.332 2.50515 160.332 2.85477C160.332 3.10402 160.23 3.43025 160.026 3.83347C159.833 4.21928 159.591 4.57832 159.306 4.90149C159.031 5.21028 158.786 5.36468 158.571 5.36468C158.417 5.33632 158.267 5.28605 158.127 5.21539C157.603 5.01194 157.066 4.84482 156.519 4.71519C155.835 4.56847 155.136 4.50082 154.437 4.51358C152.835 4.51358 151.649 5.0091 150.878 6.00013C150.107 6.99117 149.722 8.48835 149.722 10.4917C149.722 12.495 150.11 14.005 150.886 15.0215C151.662 16.0381 152.825 16.5485 154.376 16.5527C155.09 16.5595 155.803 16.4941 156.504 16.3575V12.9952H154.1C153.978 13.0047 153.856 12.9804 153.747 12.925C153.637 12.8697 153.546 12.7853 153.481 12.6813C153.354 12.472 153.29 12.1326 153.29 11.6605V10.8056C153.29 10.3475 153.352 10.0145 153.481 9.80519C153.546 9.70115 153.637 9.61684 153.747 9.56148C153.856 9.50612 153.978 9.48184 154.1 9.49129H159.628C160.016 9.49129 160.296 9.57338 160.47 9.73756C160.643 9.90174 160.728 10.168 160.725 10.5363V17.9372C160.725 18.7351 160.041 19.2855 158.673 19.5883C157.26 19.8973 155.817 20.0505 154.371 20.0452C151.313 20.0443 149.057 19.2681 147.601 17.7164Z" fill="white"/>
<path d="M165.47 19.6622C164.495 19.407 163.749 19.0957 163.234 18.7282C162.718 18.3607 162.461 18.0119 162.461 17.6819C162.484 17.3439 162.586 17.0162 162.759 16.7249C162.945 16.3642 163.185 16.0342 163.471 15.7462C163.747 15.4714 163.977 15.3344 164.16 15.3353C164.273 15.3353 164.513 15.4297 164.88 15.6186C165.387 15.8792 165.911 16.1039 166.449 16.291C167.001 16.4696 167.578 16.5558 168.157 16.5462C168.787 16.5656 169.411 16.4238 169.971 16.1341C170.466 15.861 170.714 15.3804 170.714 14.6922C170.721 14.3125 170.584 13.9443 170.331 13.6612C170.055 13.3559 169.722 13.1072 169.351 12.9287C168.953 12.7297 168.412 12.4953 167.728 12.2257L166.518 11.7153C165.847 11.407 165.213 11.023 164.629 10.5707C164.08 10.1225 163.64 9.55526 163.342 8.91187C163.011 8.22367 162.845 7.38151 162.845 6.38537C162.845 5.16891 163.151 4.15746 163.763 3.35102C164.376 2.54433 165.204 1.92759 166.152 1.57227C167.159 1.18744 168.228 0.993579 169.305 1.00061C170.145 0.991468 170.983 1.08445 171.801 1.27751C172.545 1.46125 173.129 1.69774 173.553 1.98697C173.977 2.27662 174.191 2.565 174.191 2.85465C174.171 3.17327 174.091 3.48517 173.954 3.77338C173.808 4.12713 173.609 4.45701 173.365 4.75208C173.129 5.03195 172.909 5.17146 172.706 5.17061C172.536 5.14834 172.371 5.09788 172.217 5.02132C171.845 4.87377 171.464 4.75142 171.076 4.6551C170.616 4.5523 170.145 4.50475 169.673 4.51347C168.723 4.51347 168.065 4.66021 167.697 4.95369C167.33 5.24717 167.146 5.59339 167.146 5.99236C167.132 6.40736 167.265 6.81397 167.521 7.14077C167.781 7.45941 168.104 7.72021 168.471 7.90637C168.991 8.16526 169.525 8.39488 170.071 8.59414C170.939 8.94346 171.782 9.35012 172.596 9.81145C173.28 10.2267 173.859 10.7944 174.288 11.4703C174.763 12.1874 175 13.104 175 14.2201C175 15.5811 174.707 16.6998 174.12 17.576C173.569 18.417 172.781 19.0753 171.855 19.467C170.906 19.8602 169.888 20.0585 168.861 20.0501C167.719 20.0646 166.579 19.9343 165.47 19.6622Z" fill="white"/>
</svg>
