<svg width="25" height="24" viewBox="0 0 25 24" fill="none" xmlns="http://www.w3.org/2000/svg">
<path fill-rule="evenodd" clip-rule="evenodd" d="M20.7928 12.8229C21.1922 12.7679 21.5 12.4205 21.5 12.0001C21.5 11.5415 21.1337 11.1698 20.6818 11.1698L6.30007 11.1698L11.4953 5.91866L11.5747 5.8257C11.813 5.50114 11.7876 5.0398 11.4977 4.74441C11.1788 4.41948 10.6608 4.41839 10.3406 4.74198L3.75226 11.4004C3.71304 11.4386 3.67756 11.4806 3.64642 11.526C3.42336 11.8502 3.45478 12.3001 3.74067 12.5889L10.3407 19.2581L10.4326 19.3383C10.7534 19.5787 11.2079 19.551 11.4977 19.2555C11.8166 18.9306 11.8155 18.4049 11.4953 18.0813L6.29877 12.8304L20.6818 12.8304L20.7928 12.8229Z" fill="white"/>
</svg>
