<svg width="38" height="38" viewBox="0 0 38 38" fill="none" xmlns="http://www.w3.org/2000/svg">
<path d="M0.670288 19.0037C0.672421 28.0225 7.23069 35.7017 16.1381 37.1152V24.302H11.487V19.0037H16.1436V14.9703C15.9354 13.0592 16.5882 11.1544 17.925 9.77271C19.2617 8.391 21.1438 7.67552 23.0608 7.82033C24.4368 7.84255 25.8093 7.9651 27.1675 8.187V12.6952H24.8501C24.0523 12.5907 23.2503 12.8542 22.6699 13.4114C22.0895 13.9686 21.7935 14.7593 21.8655 15.5607V19.0037H26.9456L26.1335 24.3038H21.8655V37.1152C31.4987 35.5928 38.2538 26.7949 37.2371 17.0953C36.2203 7.39568 27.7876 0.18987 18.0481 0.69816C8.30862 1.20645 0.671836 9.2509 0.670288 19.0037Z" fill="#FBFBFB"/>
</svg>
