<svg width="46" height="46" viewBox="0 0 46 46" fill="none" xmlns="http://www.w3.org/2000/svg">
<path fill-rule="evenodd" clip-rule="evenodd" d="M13.0683 45.9166H32.9293C40.6987 45.9166 45.9166 40.4667 45.9166 32.3574V13.6424C45.9166 5.53309 40.6987 0.083252 32.9316 0.083252H13.0683C5.30114 0.083252 0.083252 5.53309 0.083252 13.6424V32.3574C0.083252 40.4667 5.30114 45.9166 13.0683 45.9166ZM14.9765 20.7083C11.8171 20.7083 9.24992 18.1376 9.24992 14.9791C9.24992 11.8206 11.8171 9.24992 14.9765 9.24992C18.1336 9.24992 20.703 11.8206 20.703 14.9791C20.703 18.1376 18.1336 20.7083 14.9765 20.7083ZM40.9226 29.7235C41.69 31.6912 41.2913 34.0562 40.4709 36.0049C39.4985 38.3226 37.6365 40.0774 35.2906 40.8437C34.2489 41.1842 33.1566 41.3332 32.0666 41.3332H12.7531C10.8312 41.3332 9.13047 40.872 7.73628 40.0135C6.8629 39.4743 6.7085 38.2304 7.35605 37.4239C8.43914 36.0759 9.5084 34.7231 10.5869 33.3585C12.6424 30.7476 14.0274 29.9908 15.5668 30.6553C16.1913 30.9297 16.8181 31.3412 17.4634 31.7763C19.1825 32.9446 21.5722 34.5504 24.7201 32.8075C26.8742 31.601 28.1236 29.5314 29.2117 27.7292L29.2299 27.6991C29.307 27.5727 29.3834 27.4462 29.4596 27.3201C29.8252 26.7151 30.186 26.1182 30.5941 25.5682C31.1057 24.88 33.0022 22.7279 35.4588 24.2604C37.0235 25.2253 38.3393 26.5308 39.7474 27.9285C40.2843 28.463 40.6668 29.0708 40.9226 29.7235Z" fill="#F68729"/>
</svg>
