<svg width="38" height="26" viewBox="0 0 38 26" fill="none" xmlns="http://www.w3.org/2000/svg">
<path d="M19.011 25.8554H18.9743C18.8606 25.8554 7.48847 25.8334 4.6193 25.0542C3.04157 24.6292 1.80944 23.3964 1.3853 21.8184C0.869361 18.9077 0.620216 15.9561 0.640967 13.0001C0.627637 10.0393 0.883524 7.08338 1.40547 4.16891C1.84126 2.58952 3.06799 1.35099 4.64313 0.900081C7.43347 0.166748 18.4921 0.166748 18.9615 0.166748H19C19.1155 0.166748 30.517 0.188748 33.3568 0.967915C34.9312 1.3951 36.1608 2.62543 36.5871 4.20008C37.1195 7.12157 37.3694 10.0875 37.3333 13.0569C37.3461 16.0141 37.0896 18.9664 36.567 21.8771C36.1374 23.4531 34.9044 24.6832 33.3275 25.1092C30.5408 25.8481 19.4803 25.8554 19.011 25.8554ZM15.3443 7.50925L15.3351 18.5092L24.8905 13.0092L15.3443 7.50925Z" fill="#FBFBFB"/>
</svg>
