<svg width="33" height="27" viewBox="0 0 33 27" fill="none" xmlns="http://www.w3.org/2000/svg">
<path d="M21.6663 18.8335L16.333 13.5001M16.333 13.5001L10.9996 18.8335M16.333 13.5001V25.5001M27.5196 22.0201C28.8201 21.3112 29.8474 20.1893 30.4395 18.8316C31.0315 17.474 31.1546 15.9578 30.7892 14.5224C30.4239 13.087 29.5909 11.8142 28.4219 10.9047C27.2528 9.99532 25.8141 9.50112 24.333 9.50014H22.653C22.2494 7.93913 21.4972 6.48992 20.4529 5.26147C19.4086 4.03301 18.0994 3.05727 16.6238 2.40762C15.1481 1.75796 13.5444 1.45129 11.9331 1.51065C10.3219 1.57002 8.74504 1.99387 7.32119 2.75036C5.89734 3.50685 4.6635 4.57628 3.71245 5.87825C2.7614 7.18022 2.11787 8.68086 1.83026 10.2673C1.54265 11.8538 1.61843 13.4848 2.05191 15.0378C2.48538 16.5908 3.26528 18.0253 4.33296 19.2335" stroke="#98A2B3" stroke-width="2.66667" stroke-linecap="round" stroke-linejoin="round"/>
</svg>
